<?xml version="1.0" encoding="utf-8"?>
<?xml-stylesheet type="text/xsl" href="rss1.xsl"?>
<rss version="2.0" xmlns:atom="http://www.w3.org/2005/Atom" xmlns:content="http://purl.org/rss/1.0/modules/content/" xmlns:dc="http://purl.org/dc/elements/1.1/" xmlns:media="http://search.yahoo.com/mrss/">
<channel>
 <title>Getty</title>
 <link>http://www.gettyimg.com/</link>
 <atom:link href="http://www.gettyimg.com/" rel="self" type="application/rss+xml" />

 
                <item>
                <title><![CDATA[【HD Live Performances】UHDTV 4K - Lady Gaga, Aya Nakamura, Céline Dion - パリオリンピック2024◆開会式 NHK BSP4K 2160p AAC5.1 HLG H.265]]></title>
                <link><![CDATA[https://sharemania.us/threads/lady-gaga-aya-nakamura-c%C3%A9line-dion-%E3%83%91%E3%83%AA%E3%82%AA%E3%83%AA%E3%83%B3%E3%83%94%E3%83%83%E3%82%AF2024%E2%97%86%E9%96%8B%E4%BC%9A%E5%BC%8F-nhk-bsp4k-2160p-aac5-1-hlg-h-265.251279/]]></link>
                <description><![CDATA[<article>
<blockquote class="messageText SelectQuoteContainer ugc baseHtml">
<i>Full show: by </i><a href="https://sharemania.us/threads/olympic-games-paris-2024-opening-ceremony-nhk-bs4k-2160p-hlg-h-265-aac5-1-19-8mbps-59-940fps.251193/" class="internalLink"><i>murayan_k</i></a> <b><span style="color: #ff99ff">♡</span></b><br>
<i>Cut by me</i><br>
<br>
<img src="https://iili.io/dT9jOFf.png" class="bbCodeImage LbImage" alt="[​IMG]" data-url="https://iili.io/dT9jOFf.png" style=""> <br>
<img src="https://iili.io/dT9jea4.png" class="bbCodeImage LbImage" alt="[​IMG]" data-url="https://iili.io/dT9jea4.png" style=""> <br>
<img src="https://iili.io/dT9jhnn.png" class="bbCodeImage LbImage" alt="[​IMG]" data-url="https://iili.io/dT9jhnn.png" style=""> <br>
<br>
<div style="text-align: center">
<div class="bbCodeBlock bbCodeVfcHH HiddenContent">
<div class="attribution type">Hidden Content:</div>
<blockquote>You must either reply or click 'Like' to see the hidden information contained here.</blockquote>
</div></div>
<div class="messageTextEndMarker">&nbsp;</div>
</blockquote>
</article>]]></description>
                <author><![CDATA[SCANDAL]]></author>
                </item>

                
                <item>
                <title><![CDATA[【Apple Music】WEB-RiP - Sensato - Crazy People ft. Pitbull, Sak Noel (1080p)]]></title>
                <link><![CDATA[https://sharemania.us/threads/sensato-crazy-people-ft-pitbull-sak-noel-1080p.251276/]]></link>
                <description><![CDATA[<article>
<blockquote class="messageText SelectQuoteContainer ugc baseHtml">
<img src="https://i.postimg.cc/1tbykf7j/Sensato-Crazy-People-ft-Pitbull-Sak-Noel-mp4.jpg" class="bbCodeImage LbImage" alt="[​IMG]" data-url="https://i.postimg.cc/1tbykf7j/Sensato-Crazy-People-ft-Pitbull-Sak-Noel-mp4.jpg" style=""><br>
<br>
<div class="bbCodeBlock bbCodeCode">
<div class="type">Code:</div>
<pre>General
Complete name                  : G:\Новая папка\Sensato - Crazy People ft. Pitbull, Sak Noel.mp4
Format                         : MPEG-4
Format profile                 : Base Media
Codec ID                       : isom (isom/iso2/avc1/mp41)
File size                      : 235 MiB
Duration                       : 3 min 32 s
Overall bit rate               : 9 289 kb/s
Frame rate                     : 29.970 FPS
Movie name                     : Crazy People (DJ Buddha Mix)
Performer                      : Pitbull
Genre                          : Latin
ContentType                    : Music Video
Recorded date                  : 2019-03-26 07:00:00 UTC
Writing application            : Lavf56.30.100
Copyright                      : ℗ 2012 Mr. 305 Records and Famous Artist Music

Video
ID                             : 1
Format                         : AVC
Format/Info                    : Advanced Video Codec
Format profile                 : High@L4.1
Format settings                : CABAC / 4 Ref Frames
Format settings, CABAC         : Yes
Format settings, Reference fra : 4 frames
Format settings, Slice count   : 8 slices per frame
Codec ID                       : avc1
Codec ID/Info                  : Advanced Video Coding
Duration                       : 3 min 32 s
Bit rate                       : 9 034 kb/s
Width                          : 1 920 pixels
Height                         : 1 080 pixels
Display aspect ratio           : 16:9
Frame rate mode                : Constant
Frame rate                     : 29.970 (30000/1001) FPS
Color space                    : YUV
Chroma subsampling             : 4:2:0
Bit depth                      : 8 bits
Scan type                      : Progressive
Bits/(Pixel*Frame)             : 0.145
Stream size                    : 229 MiB (97%)
Color range                    : Limited
Color primaries                : BT.709
Transfer characteristics       : BT.709
Matrix coefficients            : BT.709
Codec configuration box        : avcC

Audio
ID                             : 2
Format                         : AAC LC
Format/Info                    : Advanced Audio Codec Low Complexity
Codec ID                       : mp4a-40-2
Duration                       : 3 min 32 s
Duration_LastFrame             : -4 ms
Bit rate mode                  : Constant
Bit rate                       : 249 kb/s
Channel(s)                     : 2 channels
Channel layout                 : L R
Sampling rate                  : 48.0 kHz
Frame rate                     : 46.875 FPS (1024 SPF)
Compression mode               : Lossy
Stream size                    : 6.31 MiB (3%)
Default                        : Yes
Alternate group                : 1

</pre>
</div>
<div class="bbCodeBlock bbCodeVfcHH HiddenContent">
<div class="attribution type">Hidden Content:</div>
<blockquote>You must either reply or click 'Like' to see the hidden information contained here.</blockquote>
</div>
<div class="messageTextEndMarker">&nbsp;</div>
</blockquote>
</article>]]></description>
                <author><![CDATA[vitalya3]]></author>
                </item>

                
                <item>
                <title><![CDATA[【Apple Music】WEB-RiP - Mabel - OK (Anxiety Anthem) (1080p)]]></title>
                <link><![CDATA[https://sharemania.us/threads/mabel-ok-anxiety-anthem-1080p.251281/]]></link>
                <description><![CDATA[<article>
<blockquote class="messageText SelectQuoteContainer ugc baseHtml">
<img src="https://i.postimg.cc/4NN2jtSL/Mabel-OK-Anxiety-Anthem-mp4.jpg" class="bbCodeImage LbImage" alt="[​IMG]" data-url="https://i.postimg.cc/4NN2jtSL/Mabel-OK-Anxiety-Anthem-mp4.jpg" style=""><br>
<br>
<div class="bbCodeBlock bbCodeCode">
<div class="type">Code:</div>
<pre>General
Complete name                  : G:\Новая папка\Mabel - OK (Anxiety Anthem).mp4
Format                         : MPEG-4
Format profile                 : Base Media
Codec ID                       : isom (isom/iso2/avc1/mp41)
File size                      : 265 MiB
Duration                       : 3 min 44 s
Overall bit rate               : 9 882 kb/s
Frame rate                     : 25.000 FPS
Movie name                     : OK (Anxiety Anthem)
Performer                      : Mabel
Genre                          : Pop
ContentType                    : Music Video
Recorded date                  : 2019-08-16 07:00:00 UTC
Writing application            : Lavf56.30.100
Copyright                      : A Polydor Records Release; ℗ 2019 Mabel McVey, under exclusive  license to Polydor, a division of Universal Music Operations Limited

Video
ID                             : 1
Format                         : AVC
Format/Info                    : Advanced Video Codec
Format profile                 : High@L4.1
Format settings                : CABAC / 4 Ref Frames
Format settings, CABAC         : Yes
Format settings, Reference fra : 4 frames
Format settings, Slice count   : 8 slices per frame
Codec ID                       : avc1
Codec ID/Info                  : Advanced Video Coding
Duration                       : 3 min 44 s
Bit rate                       : 9 628 kb/s
Width                          : 1 912 pixels
Height                         : 1 072 pixels
Display aspect ratio           : 16:9
Frame rate mode                : Constant
Frame rate                     : 25.000 FPS
Color space                    : YUV
Chroma subsampling             : 4:2:0
Bit depth                      : 8 bits
Scan type                      : Progressive
Bits/(Pixel*Frame)             : 0.188
Stream size                    : 258 MiB (97%)
Language                       : English
Color range                    : Limited
Color primaries                : BT.709
Transfer characteristics       : BT.709
Matrix coefficients            : BT.709
Codec configuration box        : avcC

Audio
ID                             : 2
Format                         : AAC LC
Format/Info                    : Advanced Audio Codec Low Complexity
Codec ID                       : mp4a-40-2
Duration                       : 3 min 44 s
Duration_LastFrame             : -17 ms
Bit rate mode                  : Constant
Bit rate                       : 251 kb/s
Channel(s)                     : 2 channels
Channel layout                 : L R
Sampling rate                  : 48.0 kHz
Frame rate                     : 46.875 FPS (1024 SPF)
Compression mode               : Lossy
Stream size                    : 6.73 MiB (3%)
Default                        : Yes
Alternate group                : 1

</pre>
</div>
<div class="bbCodeBlock bbCodeVfcHH HiddenContent">
<div class="attribution type">Hidden Content:</div>
<blockquote>You must either reply or click 'Like' to see the hidden information contained here.</blockquote>
</div>
<div class="messageTextEndMarker">&nbsp;</div>
</blockquote>
</article>]]></description>
                <author><![CDATA[vitalya3]]></author>
                </item>

                
                <item>
                <title><![CDATA[【Apple Music】WEB-RiP - USHER - DJ Got Us Fallin' In Love (feat. Pitbull) (1080p)]]></title>
                <link><![CDATA[https://sharemania.us/threads/usher-dj-got-us-fallin-in-love-feat-pitbull-1080p.251277/]]></link>
                <description><![CDATA[<article>
<blockquote class="messageText SelectQuoteContainer ugc baseHtml">
<img src="https://i.postimg.cc/sDGrhYDQ/USHER-DJ-Got-Us-Fallin-In-Love-feat-Pitbull-mp4.jpg" class="bbCodeImage LbImage" alt="[​IMG]" data-url="https://i.postimg.cc/sDGrhYDQ/USHER-DJ-Got-Us-Fallin-In-Love-feat-Pitbull-mp4.jpg" style=""><br>
<br>
<div class="bbCodeBlock bbCodeCode">
<div class="type">Code:</div>
<pre>General
Complete name                  : G:\Новая папка\USHER - DJ Got Us Fallin' In Love (feat. Pitbull).mp4
Format                         : MPEG-4
Format profile                 : Base Media
Codec ID                       : isom (isom/iso2/avc1/mp41)
File size                      : 201 MiB
Duration                       : 4 min 6 s
Overall bit rate               : 6 853 kb/s
Frame rate                     : 23.976 FPS
Movie name                     : DJ Got Us Fallin' In Love (feat. Pitbull)
Performer                      : USHER
Genre                          : R&amp;B/Soul
ContentType                    : Music Video
Recorded date                  : 2010-08-25 07:00:00 UTC
Writing application            : Lavf56.30.100
Copyright                      : ℗ (C) 2010 JIVE Records, a unit of Sony Music Entertainment

Video
ID                             : 1
Format                         : AVC
Format/Info                    : Advanced Video Codec
Format profile                 : High@L4
Format settings                : CABAC / 4 Ref Frames
Format settings, CABAC         : Yes
Format settings, Reference fra : 4 frames
Format settings, Slice count   : 8 slices per frame
Codec ID                       : avc1
Codec ID/Info                  : Advanced Video Coding
Duration                       : 4 min 6 s
Bit rate                       : 6 575 kb/s
Width                          : 1 920 pixels
Height                         : 1 080 pixels
Display aspect ratio           : 16:9
Frame rate mode                : Constant
Frame rate                     : 23.976 (24000/1001) FPS
Color space                    : YUV
Chroma subsampling             : 4:2:0
Bit depth                      : 8 bits
Scan type                      : Progressive
Bits/(Pixel*Frame)             : 0.132
Stream size                    : 193 MiB (96%)
Color range                    : Limited
Color primaries                : BT.709
Transfer characteristics       : BT.709
Matrix coefficients            : BT.709
Codec configuration box        : avcC

Audio
ID                             : 2
Format                         : AAC LC
Format/Info                    : Advanced Audio Codec Low Complexity
Codec ID                       : mp4a-40-2
Duration                       : 4 min 6 s
Duration_LastFrame             : -9 ms
Bit rate mode                  : Constant
Bit rate                       : 273 kb/s
Channel(s)                     : 2 channels
Channel layout                 : L R
Sampling rate                  : 48.0 kHz
Frame rate                     : 46.875 FPS (1024 SPF)
Compression mode               : Lossy
Stream size                    : 8.03 MiB (4%)
Default                        : Yes
Alternate group                : 1

</pre>
</div>
<div class="bbCodeBlock bbCodeVfcHH HiddenContent">
<div class="attribution type">Hidden Content:</div>
<blockquote>You must either reply or click 'Like' to see the hidden information contained here.</blockquote>
</div>
<div class="messageTextEndMarker">&nbsp;</div>
</blockquote>
</article>]]></description>
                <author><![CDATA[vitalya3]]></author>
                </item>

                
                <item>
                <title><![CDATA[【Apple Music】WEB-RiP - Antonio Orozco &amp; KAROL G - Dicen (1080p)]]></title>
                <link><![CDATA[https://sharemania.us/threads/antonio-orozco-karol-g-dicen-1080p.251282/]]></link>
                <description><![CDATA[<article>
<blockquote class="messageText SelectQuoteContainer ugc baseHtml">
<img src="https://i.postimg.cc/ZqSJ8Vws/Antonio-Orozco-KAROL-G-Dicen-mp4.jpg" class="bbCodeImage LbImage" alt="[​IMG]" data-url="https://i.postimg.cc/ZqSJ8Vws/Antonio-Orozco-KAROL-G-Dicen-mp4.jpg" style=""><br>
<br>
<div class="bbCodeBlock bbCodeCode">
<div class="type">Code:</div>
<pre>General
Complete name                  : G:\Новая папка\Antonio Orozco &amp; KAROL G - Dicen.mp4
Format                         : MPEG-4
Format profile                 : Base Media
Codec ID                       : isom (isom/iso2/avc1/mp41)
File size                      : 189 MiB
Duration                       : 3 min 47 s
Overall bit rate               : 6 977 kb/s
Frame rate                     : 25.000 FPS
Movie name                     : Dicen
Performer                      : Antonio Orozco &amp; KAROL G
Genre                          : Pop
ContentType                    : Music Video
Recorded date                  : 2018-06-29 07:00:00 UTC
Writing application            : Lavf56.30.100
Copyright                      : ℗ 2018 Universal Music Spain, S.L.U.

Video
ID                             : 1
Format                         : AVC
Format/Info                    : Advanced Video Codec
Format profile                 : High@L4
Format settings                : CABAC / 5 Ref Frames
Format settings, CABAC         : Yes
Format settings, Reference fra : 5 frames
Format settings, Slice count   : 8 slices per frame
Codec ID                       : avc1
Codec ID/Info                  : Advanced Video Coding
Duration                       : 3 min 47 s
Bit rate                       : 6 719 kb/s
Width                          : 1 912 pixels
Height                         : 776 pixels
Display aspect ratio           : 2.464
Frame rate mode                : Constant
Frame rate                     : 25.000 FPS
Color space                    : YUV
Chroma subsampling             : 4:2:0
Bit depth                      : 8 bits
Scan type                      : Progressive
Bits/(Pixel*Frame)             : 0.181
Stream size                    : 182 MiB (96%)
Color range                    : Limited
Color primaries                : BT.709
Transfer characteristics       : BT.709
Matrix coefficients            : BT.709
Codec configuration box        : avcC

Audio
ID                             : 2
Format                         : AAC LC
Format/Info                    : Advanced Audio Codec Low Complexity
Codec ID                       : mp4a-40-2
Duration                       : 3 min 47 s
Duration_LastFrame             : -15 ms
Bit rate mode                  : Constant
Bit rate                       : 254 kb/s
Channel(s)                     : 2 channels
Channel layout                 : L R
Sampling rate                  : 48.0 kHz
Frame rate                     : 46.875 FPS (1024 SPF)
Compression mode               : Lossy
Stream size                    : 6.88 MiB (4%)
Default                        : Yes
Alternate group                : 1

</pre>
</div>
<div class="bbCodeBlock bbCodeVfcHH HiddenContent">
<div class="attribution type">Hidden Content:</div>
<blockquote>You must either reply or click 'Like' to see the hidden information contained here.</blockquote>
</div>
<div class="messageTextEndMarker">&nbsp;</div>
</blockquote>
</article>]]></description>
                <author><![CDATA[vitalya3]]></author>
                </item>

                
                <item>
                <title><![CDATA[【Requests】[REQ AUD] - Eternal - Alwaysa nd Forever (1993) (FLAC or lossless)]]></title>
                <link><![CDATA[https://sharemania.us/threads/eternal-alwaysa-nd-forever-1993-flac-or-lossless.251278/]]></link>
                <description><![CDATA[<article>
<blockquote class="messageText SelectQuoteContainer ugc baseHtml">
Hi, i'm after better than CDQ version of this album please? Does anyone have FLAC, HIGHRES or losses? <br>
<br>
<a href="https://www.qobuz.com/us-en/album/always-and-forever-eternal/0724382821250" target="_blank" class="externalLink" rel="nofollow">https://www.qobuz.com/us-en/album/always-and-forever-eternal/0724382821250</a><br>
<br>
<br>
thanks <img src="styles/default/xenforo/smilies/big_smile-48.png" class="mceSmilie" alt=":)" title="Smile    :)">
<div class="messageTextEndMarker">&nbsp;</div>
</blockquote>
</article>]]></description>
                <author><![CDATA[deanalex]]></author>
                </item>

                
                <item>
                <title><![CDATA[【Apple Music】WEB-RiP - Not3s &amp; Mabel - My Lover (Radio Edit) (1080p)]]></title>
                <link><![CDATA[https://sharemania.us/threads/not3s-mabel-my-lover-radio-edit-1080p.251280/]]></link>
                <description><![CDATA[<article>
<blockquote class="messageText SelectQuoteContainer ugc baseHtml">
<img src="https://i.postimg.cc/gJ4gjTZ9/Not3s-Mabel-My-Lover-Radio-Edit-mp4.jpg" class="bbCodeImage LbImage" alt="[​IMG]" data-url="https://i.postimg.cc/gJ4gjTZ9/Not3s-Mabel-My-Lover-Radio-Edit-mp4.jpg" style=""><br>
<br>
<div class="bbCodeBlock bbCodeCode">
<div class="type">Code:</div>
<pre>General
Complete name                  : G:\Новая папка\Not3s &amp; Mabel - My Lover (Radio Edit).mp4
Format                         : MPEG-4
Format profile                 : Base Media
Codec ID                       : isom (isom/iso2/avc1/mp41)
File size                      : 162 MiB
Duration                       : 3 min 17 s
Overall bit rate               : 6 846 kb/s
Frame rate                     : 25.000 FPS
Movie name                     : My Lover (Radio Edit)
Performer                      : Not3s &amp; Mabel
Genre                          : Hip-Hop/Rap
ContentType                    : Music Video
Recorded date                  : 2018-01-31 08:00:00 UTC
Writing application            : Lavf56.30.100
Copyright                      : ℗ (C) 2017 Relentless Records under exclusive licence to Sony Music Entertainment UK Limited

Video
ID                             : 1
Format                         : AVC
Format/Info                    : Advanced Video Codec
Format profile                 : High@L4
Format settings                : CABAC / 5 Ref Frames
Format settings, CABAC         : Yes
Format settings, Reference fra : 5 frames
Format settings, Slice count   : 8 slices per frame
Codec ID                       : avc1
Codec ID/Info                  : Advanced Video Coding
Duration                       : 3 min 17 s
Bit rate                       : 6 596 kb/s
Width                          : 1 920 pixels
Height                         : 700 pixels
Display aspect ratio           : 2.743
Frame rate mode                : Constant
Frame rate                     : 25.000 FPS
Color space                    : YUV
Chroma subsampling             : 4:2:0
Bit depth                      : 8 bits
Scan type                      : Progressive
Bits/(Pixel*Frame)             : 0.196
Stream size                    : 156 MiB (96%)
Color range                    : Limited
Color primaries                : BT.709
Transfer characteristics       : BT.709
Matrix coefficients            : BT.709
Codec configuration box        : avcC

Audio
ID                             : 2
Format                         : AAC LC
Format/Info                    : Advanced Audio Codec Low Complexity
Codec ID                       : mp4a-40-2
Duration                       : 3 min 17 s
Duration_LastFrame             : -4 ms
Bit rate mode                  : Constant
Bit rate                       : 246 kb/s
Channel(s)                     : 2 channels
Channel layout                 : L R
Sampling rate                  : 48.0 kHz
Frame rate                     : 46.875 FPS (1024 SPF)
Compression mode               : Lossy
Stream size                    : 5.79 MiB (4%)
Default                        : Yes
Alternate group                : 1

</pre>
</div>
<div class="bbCodeBlock bbCodeVfcHH HiddenContent">
<div class="attribution type">Hidden Content:</div>
<blockquote>You must either reply or click 'Like' to see the hidden information contained here.</blockquote>
</div>
<div class="messageTextEndMarker">&nbsp;</div>
</blockquote>
</article>]]></description>
                <author><![CDATA[vitalya3]]></author>
                </item>

                </channel></rss>